<svg width="176" height="27" viewBox="0 0 715 109" fill="none" xmlns="http://www.w3.org/2000/svg"><path d="M570.361 105.746h-13.89c0 .814.267 1.627.267 2.441h16.294V8.134h-2.404v97.612h-.267zm31.786-65.074v65.074h-14.424v2.441h16.828v-63.99c-.801-1.085-1.602-2.44-2.404-3.525zm50.487 65.074h-13.891c0 .814.267 1.627.267 2.441h16.295V8.134h-2.404v97.612h-.267zM276.526 25.217h8.548c1.602 0 2.938 0 4.274.27-1.603-1.626-4.809-2.71-10.685-2.71h-4.809V45.01l2.405-.813v-18.98h.267zm40.336 4.067c0 12.472-4.541 21.42-14.425 28.47l1.336 2.711c9.082-6.236 15.226-14.641 15.226-26.3 0-4.881-1.069-8.948-2.939-12.744.535 2.711.802 5.151.802 7.863zM279.464 68.87c-1.603.543-3.473 1.356-5.61 1.899v34.977h-15.493v2.441h17.897V72.938c1.336-.542 2.938-.814 4.274-1.356l-1.068-2.711zM43.593 22.505c-1.87-1.085-3.74-1.356-5.61-1.356-12.822 0-15.493 16.811-15.493 30.64 0 8.676 1.068 18.166 4.808 24.403-1.603-5.423-2.137-12.202-2.137-18.98 0-18.167 4.274-34.165 18.431-34.707zm95.363 1.085h-8.014v2.44h8.014v-2.44zm44.341 0h-18.698v82.156h-15.226v2.441h17.897V26.03h16.027v-2.44zM79.655 51.789c0 34.435-16.027 55.855-41.671 55.855-1.336 0-2.938 0-4.274-.271 3.205 1.085 6.945 1.627 10.685 1.627 24.575 0 37.931-21.15 37.931-51.788 0-12.473-2.136-23.319-6.41-31.724 2.404 7.592 3.74 16.268 3.74 26.3zm54.492 53.957H92.476v2.441h44.075V90.291h-2.404v15.455zm282.35-16.539l2.137-8.135-2.939-72.938h-2.671l3.473 81.073zM110.373 8.134h-2.404v71.854h2.404V8.134zm574.85 0v97.612h-15.226v2.441h17.897V8.134h-2.671zM345.976 49.62l-2.404 56.126h-40.603l1.069 2.441h42.205l2.137-50.975c-.801-2.712-1.603-5.152-2.404-7.593zm44.343 0c-4.274 13.286-8.014 26.3-9.617 34.164l-.534 2.982h-14.692c.267.814.267 1.627.534 2.44h16.829c1.603-7.05 4.541-18.166 8.281-29.825l-.801-9.761zm66.781-7.05l-1.603-5.965-5.076 20.064h2.939l3.74-14.1zm38.199 49.348V83.24L474.998 8.405h-2.404l22.705 83.513zM466.448 80.53h-21.904l-6.411 25.216h-35.527v2.441h37.664l6.411-25.217h20.569l-.802-2.44z" fill="#5A1404"/><path d="M519.874 40.672v65.074h-38.199l.535 2.441h40.068v-63.99c-.801-1.085-1.603-2.44-2.404-3.525zM209.21 79.987h2.405V66.16h30.452V48.263h-2.404V63.72H209.21v16.268zm36.062-71.582V23.59H209.21v14.37h2.405V26.03h36.061V8.405h-2.404zm0 97.341h-51.555v2.441h53.959V90.562h-2.404v15.184z" fill="#5A1404"/><path d="M549.524 50.162c-13.891-24.674-24.309-37.418-34.727-48.535h-15.76v100.052h16.829V29.012c11.486 14.1 32.055 47.722 34.459 72.938h16.294V1.898h-16.828v48.264h-.267zm82.274 0c-13.891-24.674-24.308-37.418-34.726-48.535h-15.76v100.052h16.828V29.012c11.487 14.1 32.055 47.722 34.459 72.938h16.295V1.898h-16.829v48.264h-.267zM312.851 29.284c0-15.998-11.219-27.386-32.589-27.386h-28.048V101.95h17.898V67.786a184.817 184.817 0 0011.486-4.067l15.76 37.96h20.836l-20.836-45.281c10.418-6.508 15.493-14.37 15.493-27.114zm-42.739-10.575h8.548c10.685 0 16.294 4.067 16.294 11.388 0 12.473-14.157 17.082-24.842 20.336V18.709zM37.982 0C13.674 0 .317 21.42.317 51.789c0 30.639 13.357 51.788 37.665 51.788 24.575 0 37.931-21.15 37.931-51.788C75.913 21.42 62.557 0 37.982 0zm0 86.495c-14.692 0-19.233-16.269-19.233-34.706 0-18.438 4.541-34.707 19.233-34.707s19.5 16.269 19.5 34.707c0 18.437-4.808 34.706-19.5 34.706zm65.98-84.597H86.065V101.95h44.075V84.055h-26.178V1.898zm577.521 0h-17.897V101.95h17.897V1.898zm-556.954 0v17.896h18.432v82.156h17.897V19.793h18.164V1.898h-54.493zm262.851 0c-6.678 16.54-12.555 31.182-19.5 57.754-6.945-26.843-12.555-41.214-19.5-57.754h-21.37l-4.274 100.052h16.829l3.206-72.395c6.945 18.166 13.89 41.485 16.294 53.686h17.363c2.404-11.93 9.349-35.248 16.295-53.686l3.205 72.395h16.829L408.483 1.898H387.38zm53.958 74.836h28.048l6.411 25.216h17.897L466.982 1.898h-22.706L417.297 101.95h17.897l6.144-25.216zm14.158-55.856l10.15 39.858h-20.034l9.884-39.858zM187.304 1.898V101.95h53.959V84.055h-36.062V59.652h30.453V42.027h-30.453V19.794h36.062V1.898h-53.959zm519.822 90.291c-4.274 0-7.747 3.525-7.747 7.592 0 4.338 3.473 7.592 7.747 7.592s7.479-3.525 7.479-7.863c.268-3.796-3.205-7.321-7.479-7.321zm0 14.1c-3.473 0-6.144-2.712-6.144-6.508 0-3.525 2.671-6.236 6.144-6.236 3.473 0 6.144 2.711 6.144 6.236 0 3.796-2.671 6.508-6.144 6.508z" fill="#5A1404"/><path d="M710.867 97.883c0-1.898-1.069-2.711-3.205-2.711h-3.473v9.219h1.603v-3.796h1.335l2.404 3.796h1.603l-2.404-3.796c1.336-.272 2.137-1.085 2.137-2.712zm-5.075-1.084h1.602c1.336 0 1.87.27 1.87 1.355 0 1.356-.801 1.356-2.137 1.356h-1.335V96.8z" fill="#5A1404"/></svg>